<svg width="1920" height="1080" viewBox="0 0 1920 1080" fill="none" xmlns="http://www.w3.org/2000/svg">
<g clip-path="url(#clip0_451_68)">
<rect width="1920" height="1080" fill="white" fill-opacity="0.4"/>
<rect width="1921" height="3145" fill="#040815"/>
<path opacity="0.173913" d="M2271.47 985.376L2557.44 827.957C2562.59 825.12 2566.4 820.352 2568.07 814.656L2704.13 350.033C2705.41 345.631 2705.35 340.909 2703.95 336.477L2575.28 -70.1548C2572.61 -78.6024 2565.44 -84.8978 2556.79 -86.3847L2277.18 -134.473C2268.54 -135.96 2259.93 -132.38 2254.98 -125.242L2016.89 218.312C2014.3 222.057 2012.89 226.528 2012.87 231.147L2010.04 718.684C2010.01 724.66 2012.27 730.474 2016.37 734.901L2243.54 980.572C2250.8 988.429 2262.33 990.411 2271.47 985.376Z" stroke="url(#paint0_linear_451_68)" stroke-opacity="0.2" stroke-width="4"/>
<path opacity="0.188406" d="M2222.66 982.034L2513.86 842.732C2519.16 840.195 2523.21 835.636 2525.17 830.017L2682.05 378.548C2683.56 374.193 2683.73 369.436 2682.52 364.899L2574.05 -44.3826C2571.78 -52.9519 2564.94 -59.6209 2556.42 -61.5886L2281.17 -125.118C2272.65 -127.086 2263.9 -124.012 2258.62 -117.186L2006.22 208.801C2003.42 212.415 2001.79 216.834 2001.54 221.481L1975.75 703.207C1975.43 709.202 1977.43 715.159 1981.32 719.818L2195.16 975.688C2202.01 983.884 2213.33 986.497 2222.66 982.034Z" stroke="url(#paint1_linear_451_68)" stroke-opacity="0.2" stroke-width="4"/>
<path opacity="0.202899" d="M2174.63 977.273L2470.11 856.24C2475.55 854.012 2479.84 849.672 2482.08 844.144L2658.89 406.927C2660.62 402.627 2661.02 397.841 2660.02 393.206L2571.64 -17.5522C2569.78 -26.2194 2563.3 -33.238 2554.93 -35.675L2284.73 -114.29C2276.36 -116.727 2267.52 -114.163 2261.92 -107.67L1996.24 200.071C1993.24 203.544 1991.38 207.904 1990.91 212.572L1942.7 687.209C1942.09 693.209 1943.81 699.299 1947.5 704.181L2147.66 969.428C2154.08 977.931 2165.15 981.153 2174.63 977.273Z" stroke="url(#paint2_linear_451_68)" stroke-opacity="0.2" stroke-width="4"/>
<path opacity="0.217391" d="M2127.44 971.151L2426.27 868.482C2431.83 866.572 2436.35 862.464 2438.87 857.04L2634.65 435.104C2636.62 430.867 2637.25 426.061 2636.47 421.333L2568.02 10.2548C2566.57 1.51371 2560.48 -5.82849 2552.28 -8.72121L2287.81 -102.031C2279.61 -104.924 2270.71 -102.872 2264.8 -96.7295L1986.91 192.156C1983.71 195.479 1981.62 199.77 1980.92 204.452L1910.92 670.768C1910.02 676.763 1911.46 682.975 1914.92 688.069L2101.1 961.859C2107.07 970.636 2117.86 974.442 2127.44 971.151Z" stroke="url(#paint3_linear_451_68)" stroke-opacity="0.2" stroke-width="4"/>
<path opacity="0.231884" d="M2081.16 963.728L2382.39 879.466C2388.06 877.881 2392.81 874.016 2395.6 868.709L2609.38 463.015C2611.57 458.851 2612.44 454.033 2611.87 449.218L2563.16 38.9549C2562.11 30.1639 2556.42 22.5251 2548.42 19.1923L2290.33 -88.3863C2282.34 -91.7191 2273.4 -90.1805 2267.21 -84.4059L1978.2 185.086C1974.81 188.248 1972.48 192.462 1971.55 197.15L1880.42 653.966C1879.23 659.943 1880.37 666.263 1883.61 671.558L2055.54 953.048C2061.05 962.065 2071.51 966.427 2081.16 963.728Z" stroke="url(#paint4_linear_451_68)" stroke-opacity="0.2" stroke-width="4"/>
<path opacity="0.246377" d="M2035.85 955.074L2338.54 889.203C2344.3 887.95 2349.26 884.341 2352.33 879.164L2583.07 490.601C2585.49 486.521 2586.6 481.698 2586.25 476.805L2557.01 68.4655C2556.38 59.6485 2551.09 51.7414 2543.33 47.986L2292.24 -73.403C2284.47 -77.1584 2275.53 -76.1302 2269.07 -70.7401L1970.04 178.893C1966.46 181.884 1963.91 186.01 1962.74 190.696L1851.2 636.885C1849.72 642.83 1850.56 649.246 1853.56 654.731L2011.02 943.071C2016.06 952.292 2026.17 957.181 2035.85 955.074Z" stroke="url(#paint5_linear_451_68)" stroke-opacity="0.2" stroke-width="4"/>
<path opacity="0.26087" d="M1991.55 945.256L2294.78 897.707C2300.62 896.792 2305.78 893.45 2309.13 888.418L2555.75 517.802C2558.4 513.816 2559.76 508.998 2559.64 504.035L2549.54 98.6993C2549.32 89.8805 2544.47 81.7338 2536.95 77.5748L2293.48 -57.1336C2285.96 -61.2926 2277.03 -60.7707 2270.34 -55.78L1962.41 173.601C1958.64 176.41 1955.85 180.437 1954.44 185.111L1823.28 619.606C1821.49 625.506 1822.04 632.003 1824.79 637.667L1967.59 931.999C1972.15 941.391 1981.88 946.773 1991.55 945.256Z" stroke="url(#paint6_linear_451_68)" stroke-opacity="0.2" stroke-width="4"/>
<path opacity="0.275362" d="M1948.33 934.345L2251.17 904.995C2257.07 904.424 2262.42 901.361 2266.04 896.488L2527.45 544.558C2530.33 540.677 2531.94 535.876 2532.05 530.85L2540.74 129.569C2540.93 120.773 2536.51 112.416 2529.26 107.874L2293.98 -39.6319C2286.73 -44.1743 2277.86 -44.1524 2270.94 -39.5751L1955.25 169.233C1951.29 171.848 1948.27 175.765 1946.61 180.417L1796.64 602.209C1794.56 608.05 1794.8 614.614 1797.29 620.443L1925.3 919.909C1929.38 929.438 1938.69 935.279 1948.33 934.345Z" stroke="url(#paint7_linear_451_68)" stroke-opacity="0.2" stroke-width="4"/>
<path opacity="0.289855" d="M1906.22 922.418L2207.77 911.088C2213.71 910.865 2219.24 908.093 2223.12 903.395L2498.2 570.814C2501.31 567.05 2503.18 562.276 2503.53 557.198L2530.58 160.988C2531.17 152.237 2527.2 143.7 2520.24 138.796L2293.7 -20.955C2286.75 -25.8596 2277.95 -26.3301 2270.83 -22.1781L1948.5 165.81C1944.37 168.219 1941.11 172.014 1939.21 176.632L1771.29 584.776C1768.92 590.542 1768.84 597.158 1771.07 603.139L1884.19 906.878C1887.77 916.511 1896.66 922.777 1906.22 922.418Z" stroke="url(#paint8_linear_451_68)" stroke-opacity="0.2" stroke-width="4"/>
<path opacity="0.304348" d="M1865.27 909.551L2164.63 916.012C2170.59 916.141 2176.29 913.672 2180.44 909.163L2468.03 596.516C2471.37 592.883 2473.5 588.148 2474.09 583.027L2519.04 192.868C2520.04 184.186 2516.52 175.499 2509.87 170.254L2292.6 -1.16052C2285.95 -6.4052 2277.25 -7.3588 2269.96 -3.64286L1942.13 163.35C1937.83 165.542 1934.34 169.201 1932.19 173.774L1747.23 567.388C1744.56 573.064 1744.16 579.714 1746.11 585.833L1844.28 892.986C1847.38 902.69 1855.82 909.346 1865.27 909.551Z" stroke="url(#paint9_linear_451_68)" stroke-opacity="0.2" stroke-width="4"/>
<path opacity="0.318841" d="M1825.52 895.823L2121.8 919.794C2127.77 920.277 2133.63 918.121 2138.03 913.819L2436.97 621.611C2440.54 618.122 2442.93 613.44 2443.76 608.288L2506.12 225.121C2507.52 216.531 2504.45 207.723 2498.12 202.16L2290.61 19.6892C2284.28 14.1271 2275.71 12.7009 2268.27 15.9716L1936.08 161.866C1931.61 163.828 1927.89 167.338 1925.49 171.853L1724.42 550.122C1721.46 555.692 1720.74 562.36 1722.41 568.602L1805.61 878.314C1808.22 888.058 1816.2 895.069 1825.52 895.823Z" stroke="url(#paint10_linear_451_68)" stroke-opacity="0.2" stroke-width="4"/>
<path opacity="0.333333" d="M1786.99 881.315L2079.35 922.464C2085.31 923.303 2091.31 921.47 2095.96 917.39L2405.06 646.049C2408.86 642.72 2411.51 638.105 2412.6 632.933L2491.81 257.657C2493.6 249.181 2490.99 240.281 2485 234.425L2287.71 41.531C2281.72 35.6743 2273.3 33.7873 2265.72 36.6051L1930.29 161.37C1925.67 163.089 1921.72 166.435 1919.07 170.879L1702.87 533.057C1699.61 538.503 1698.56 545.172 1699.95 551.522L1768.2 862.941C1770.34 872.696 1777.84 880.027 1786.99 881.315Z" stroke="url(#paint11_linear_451_68)" stroke-opacity="0.2" stroke-width="4"/>
<path opacity="0.347826" d="M1749.72 866.111L2037.31 924.055C2043.25 925.25 2049.37 923.751 2054.26 919.909L2372.35 669.784C2376.36 666.628 2379.28 662.095 2380.63 656.917L2476.1 290.389C2478.28 282.049 2476.12 273.086 2470.48 266.958L2283.85 64.2999C2278.21 58.1716 2269.95 55.8364 2262.27 58.1952L1924.73 161.869C1919.96 163.333 1915.79 166.5 1912.88 170.859L1682.54 516.267C1679 521.573 1677.62 528.223 1678.72 534.665L1732.08 846.951C1733.74 856.687 1740.76 864.304 1749.72 866.111Z" stroke="url(#paint12_linear_451_68)" stroke-opacity="0.2" stroke-width="4"/>
<path opacity="0.362319" d="M1713.74 850.294L1995.75 924.603C2001.63 926.153 2007.87 924.998 2012.98 921.409L2338.87 692.771C2343.1 689.804 2346.28 685.369 2347.89 680.199L2459.01 323.229C2461.56 315.047 2459.86 306.048 2454.58 299.671L2279 87.9295C2273.71 81.5527 2265.65 78.7828 2257.89 80.6781L1919.33 163.368C1914.43 164.565 1910.04 167.538 1906.88 171.795L1663.41 499.827C1659.59 504.976 1657.88 511.588 1658.68 518.106L1697.26 830.425C1698.46 840.117 1704.99 847.988 1713.74 850.294Z" stroke="url(#paint13_linear_451_68)" stroke-opacity="0.2" stroke-width="4"/>
<path opacity="0.376812" d="M1679.05 833.949L1954.7 924.148C1960.52 926.052 1966.85 925.249 1972.18 921.929L2304.67 714.969C2309.1 712.206 2312.55 707.886 2314.42 702.739L2440.54 356.092C2443.45 348.087 2442.21 339.08 2437.29 332.478L2273.13 112.353C2268.21 105.75 2260.35 102.56 2252.53 103.989L1914.06 165.87C1909.03 166.788 1904.42 169.551 1901.01 173.691L1645.45 483.81C1641.36 488.784 1639.32 495.338 1639.82 501.915L1663.76 813.448C1664.5 823.07 1670.54 831.163 1679.05 833.949Z" stroke="url(#paint14_linear_451_68)" stroke-opacity="0.2" stroke-width="4"/>
<path opacity="0.391304" d="M1628.68 817.163L1897.21 922.731C1902.95 924.985 1909.35 924.542 1914.89 921.507L2252.79 736.34C2257.43 733.797 2261.14 729.61 2263.28 724.501L2403.7 388.893C2406.97 381.086 2406.18 372.096 2401.62 365.29L2249.21 137.501C2244.66 130.695 2237.03 127.099 2229.18 128.06L1891.85 169.373C1886.71 170.002 1881.9 172.538 1878.24 176.544L1611.64 468.285C1607.27 473.066 1604.91 479.542 1605.11 486.161L1614.59 796.103C1614.88 805.632 1620.42 813.918 1628.68 817.163Z" stroke="url(#paint15_linear_451_68)" stroke-opacity="0.2" stroke-width="4"/>
<path opacity="0.405797" d="M1596.63 800.021L1857.32 920.393C1862.95 922.993 1869.41 922.917 1875.14 920.182L2217.28 756.847C2222.11 754.541 2226.08 750.504 2228.49 745.45L2382.51 421.547C2386.12 413.956 2385.77 405.008 2381.59 398.02L2241.22 163.303C2237.04 156.315 2229.66 152.329 2221.8 152.822L1886.65 173.872C1881.42 174.2 1876.41 176.494 1872.51 180.349L1595.93 453.318C1591.3 457.887 1588.61 464.266 1588.51 470.908L1583.74 778.472C1583.6 787.886 1588.65 796.336 1596.63 800.021Z" stroke="url(#paint16_linear_451_68)" stroke-opacity="0.2" stroke-width="4"/>
<path opacity="0.42029" d="M1565.91 782.608L1818.07 917.182C1823.58 920.122 1830.08 920.417 1835.98 917.998L2181.2 776.46C2186.21 774.405 2190.43 770.538 2193.1 765.556L2359.99 453.974C2363.93 446.617 2364.02 437.734 2360.22 430.585L2232.14 189.69C2228.33 182.542 2221.21 178.181 2213.37 178.208L1881.42 179.36C1876.12 179.378 1870.92 181.414 1866.78 185.1L1581.29 438.973C1576.4 443.314 1573.39 449.573 1572.98 456.223L1554.23 760.639C1553.66 769.919 1558.22 778.506 1565.91 782.608Z" stroke="url(#paint17_linear_451_68)" stroke-opacity="0.2" stroke-width="4"/>
<path opacity="0.434783" d="M1536.52 765.011L1779.49 913.142C1784.86 916.415 1791.38 917.088 1797.44 914.995L2144.59 795.149C2149.77 793.361 2154.24 789.682 2157.17 784.79L2336.17 486.093C2340.43 478.986 2340.94 470.19 2337.52 462.901L2221.94 216.59C2218.52 209.301 2211.67 204.581 2203.87 204.145L1876.11 185.825C1870.75 185.525 1865.38 187.287 1861 190.787L1567.66 425.311C1562.54 429.405 1559.21 435.526 1558.5 442.165L1526.04 742.684C1525.06 751.811 1529.14 760.511 1536.52 765.011Z" stroke="url(#paint18_linear_451_68)" stroke-opacity="0.2" stroke-width="4"/>
<path opacity="0.449275" d="M1491.45 747.313L1724.62 908.324C1729.83 911.921 1736.34 912.974 1742.55 911.222L2090.5 812.889C2095.84 811.382 2100.54 807.911 2103.73 803.126L2294.07 517.826C2298.63 510.986 2299.56 502.298 2296.52 494.889L2193.63 243.932C2190.59 236.523 2184.02 231.46 2176.29 230.566L1853.67 193.256C1848.26 192.63 1842.74 194.103 1838.14 197.398L1538.01 412.39C1532.67 416.221 1529.03 422.182 1528 428.792L1482.18 724.689C1480.79 733.648 1484.39 742.438 1491.45 747.313Z" stroke="url(#paint19_linear_451_68)" stroke-opacity="0.2" stroke-width="4"/>
<path opacity="0.463768" d="M1447.7 729.599L1670.49 902.778C1675.52 906.69 1682.01 908.124 1688.33 906.723L2036 829.661C2041.47 828.448 2046.4 825.202 2049.85 820.544L2250.73 549.1C2255.58 542.542 2256.92 533.981 2254.26 526.472L2164.18 271.645C2161.53 264.136 2155.26 258.746 2147.61 257.399L1831.06 201.635C1825.63 200.678 1819.96 201.849 1815.15 204.922L1509.3 400.264C1503.73 403.816 1499.8 409.597 1498.47 416.161L1439.62 706.736C1437.84 715.511 1440.97 724.369 1447.7 729.599Z" stroke="url(#paint20_linear_451_68)" stroke-opacity="0.2" stroke-width="4"/>
<path opacity="0.478261" d="M1422.24 711.95L1634.12 896.553C1638.96 900.769 1645.4 902.586 1651.82 901.546L1998.13 845.444C2003.72 844.538 2008.86 841.536 2012.56 837.022L2223.18 579.842C2228.31 573.578 2230.05 565.164 2227.77 557.572L2150.6 299.659C2148.33 292.066 2142.37 286.366 2134.83 284.573L1825.22 210.943C1819.78 209.651 1814 210.506 1808.98 213.341L1498.45 388.984C1492.69 392.241 1488.47 397.822 1486.83 404.323L1415.35 688.903C1413.19 697.479 1415.86 706.386 1422.24 711.95Z" stroke="url(#paint21_linear_451_68)" stroke-opacity="0.2" stroke-width="4"/>
<path opacity="0.492754" d="M1395.07 694.446L1595.54 889.703C1600.17 894.212 1606.54 896.409 1613.04 895.738L1956.94 860.225C1962.63 859.637 1967.97 856.896 1971.91 852.545L2191.47 609.981C2196.86 604.026 2198.98 595.775 2197.09 588.118L2132.88 327.901C2130.99 320.244 2125.35 314.25 2117.94 312.019L1816.11 221.159C1810.7 219.529 1804.81 220.057 1799.61 222.637L1485.43 378.595C1479.49 381.544 1474.99 386.907 1473.05 393.326L1389.35 671.266C1386.83 679.632 1389.03 688.569 1395.07 694.446Z" stroke="url(#paint22_linear_451_68)" stroke-opacity="0.2" stroke-width="4"/>
<path opacity="0.507246" d="M1355.15 677.168L1543.77 882.281C1548.17 887.07 1554.45 889.645 1561.01 889.349L1901.5 873.994C1907.27 873.734 1912.79 871.271 1916.96 867.1L2144.64 639.454C2150.27 633.819 2152.77 625.746 2151.26 618.042L2100.03 356.303C2098.52 348.599 2093.21 342.327 2085.95 339.669L1792.7 232.259C1787.32 230.291 1781.35 230.481 1775.98 232.792L1459.18 369.144C1453.08 371.771 1448.31 376.897 1446.08 383.218L1350.6 653.903C1347.72 662.047 1349.48 670.997 1355.15 677.168Z" stroke="url(#paint23_linear_451_68)" stroke-opacity="0.2" stroke-width="4"/>
<path opacity="0.521739" d="M1316.46 660.189L1492.82 874.34C1496.99 879.395 1503.15 882.343 1509.75 882.428L1845.85 886.743C1851.68 886.817 1857.37 884.647 1861.76 880.674L2096.73 668.195C2102.59 662.891 2105.46 655.012 2104.33 647.277L2066.04 384.794C2064.91 377.059 2059.95 370.526 2052.86 367.45L1768.93 244.214C1763.62 241.909 1757.59 241.755 1752.07 243.782L1433.64 360.666C1427.4 362.959 1422.37 367.832 1419.85 374.037L1313.06 636.885C1309.85 644.796 1311.15 653.743 1316.46 660.189Z" stroke="url(#paint24_linear_451_68)" stroke-opacity="0.2" stroke-width="4"/>
<path opacity="0.536232" d="M1292.98 643.583L1456.72 865.934C1460.63 871.242 1466.66 874.556 1473.27 875.024L1804.06 898.469C1809.92 898.884 1815.76 897.02 1820.36 893.261L2061.8 696.146C2067.88 691.183 2071.09 683.512 2070.34 675.761L2044.94 413.307C2044.19 405.557 2039.57 398.779 2032.68 395.297L1758.78 256.997C1753.55 254.36 1747.49 253.854 1741.83 255.585L1422.76 353.198C1416.39 355.147 1411.12 359.75 1408.32 365.824L1290.72 620.284C1287.18 627.954 1288.04 636.882 1292.98 643.583Z" stroke="url(#paint25_linear_451_68)" stroke-opacity="0.2" stroke-width="4"/>
<path opacity="0.550725" d="M1270.65 627.422L1421.48 857.119C1425.12 862.663 1430.99 866.335 1437.58 867.188L1762.17 909.172C1768.04 909.932 1774.01 908.386 1778.81 904.857L2025.89 723.251C2032.17 718.638 2035.73 711.188 2035.35 703.438L2022.72 441.774C2022.35 434.024 2018.09 427.019 2011.41 423.143L1748.2 270.578C1743.08 267.613 1737 266.752 1731.23 268.175L1412.47 346.771C1405.99 348.367 1400.5 352.686 1397.42 358.612L1269.53 604.171C1265.67 611.589 1266.1 620.483 1270.65 627.422Z" stroke="url(#paint26_linear_451_68)" stroke-opacity="0.2" stroke-width="4"/>
<path opacity="0.565217" d="M1252.45 611.772L1390.1 847.95C1393.46 853.713 1399.15 857.734 1405.71 858.97L1723.24 918.855C1729.1 919.962 1735.17 918.744 1740.16 915.459L1992.07 749.458C1998.53 745.203 2002.42 737.987 2002.42 730.253V470.129C2002.42 462.395 1998.53 455.179 1992.07 450.924L1740.16 284.923C1735.17 281.638 1729.1 280.42 1723.24 281.527L1405.71 341.412C1399.15 342.648 1393.46 346.669 1390.1 352.432L1252.45 588.61C1248.28 595.767 1248.28 604.615 1252.45 611.772Z" stroke="url(#paint27_linear_451_68)" stroke-opacity="0.2" stroke-width="4"/>
<path opacity="0.57971" d="M1218.34 596.697L1342.59 838.478C1345.66 844.443 1351.15 848.802 1357.65 850.419L1667.32 927.525C1673.15 928.977 1679.3 928.095 1684.45 925.068L1940.39 774.718C1947.01 770.828 1951.22 763.857 1951.59 756.154L1964.03 498.306C1964.41 490.603 1960.89 483.194 1954.68 478.573L1714.62 299.996C1709.79 296.401 1703.76 294.827 1697.82 295.609L1382.42 337.143C1375.81 338.014 1369.92 341.725 1366.3 347.31L1219.45 573.663C1214.98 580.551 1214.56 589.338 1218.34 596.697Z" stroke="url(#paint28_linear_451_68)" stroke-opacity="0.2" stroke-width="4"/>
<path opacity="0.594203" d="M1184.26 582.258L1294.96 828.761C1297.72 834.911 1303 839.594 1309.41 841.587L1610.47 935.192C1616.24 936.987 1622.45 936.447 1627.75 933.69L1886.91 798.989C1893.68 795.469 1898.19 788.756 1898.93 781.099L1923.6 526.245C1924.34 518.588 1921.21 511.002 1915.26 506.031L1687.56 315.765C1682.9 311.87 1676.93 309.942 1670.94 310.394L1358.54 333.984C1351.89 334.487 1345.83 337.876 1341.95 343.269L1186.48 559.393C1181.72 566.004 1180.88 574.717 1184.26 582.258Z" stroke="url(#paint29_linear_451_68)" stroke-opacity="0.2" stroke-width="4"/>
<path opacity="0.608696" d="M1166.18 568.511L1263.21 818.851C1265.66 825.168 1270.69 830.16 1277 832.523L1568.73 941.867C1574.42 944 1580.66 943.808 1586.1 941.331L1847.69 822.228C1854.59 819.085 1859.4 812.639 1860.5 805.044L1897.14 553.882C1898.25 546.287 1895.51 538.543 1889.84 533.237L1674.95 332.189C1670.48 328.008 1664.6 325.73 1658.58 325.849L1350.01 331.949C1343.34 332.081 1337.13 335.14 1333.01 340.326L1169.48 545.855C1164.45 552.18 1163.19 560.806 1166.18 568.511Z" stroke="url(#paint30_linear_451_68)" stroke-opacity="0.2" stroke-width="4"/>
<path opacity="0.623188" d="M1149.03 555.511L1232.33 808.803C1234.46 815.267 1239.23 820.554 1245.41 823.279L1527.16 947.57C1532.74 950.034 1538.99 950.189 1544.55 948.002L1807.79 844.402C1814.81 841.64 1819.9 835.472 1821.37 827.953L1869.68 581.162C1871.15 573.643 1868.81 565.759 1863.43 560.136L1661.76 349.232C1657.5 344.779 1651.73 342.159 1645.7 341.943L1341.76 331.051C1335.1 330.812 1328.75 333.533 1324.39 338.499L1153.42 533.103C1148.12 539.135 1146.45 547.659 1149.03 555.511Z" stroke="url(#paint31_linear_451_68)" stroke-opacity="0.2" stroke-width="4"/>
<path opacity="0.637681" d="M1135.78 543.304L1205.33 798.668C1207.12 805.26 1211.62 810.825 1217.65 813.901L1488.79 952.315C1494.25 955.102 1500.5 955.605 1506.15 953.715L1770.28 865.478C1777.4 863.1 1782.76 857.222 1784.59 849.794L1844.25 608.026C1846.09 600.598 1844.15 592.593 1839.08 586.671L1650.97 366.852C1646.94 362.143 1641.3 359.189 1635.29 358.639L1336.74 331.294C1330.1 330.686 1323.64 333.061 1319.05 337.796L1141.23 521.186C1135.68 526.917 1133.6 535.325 1135.78 543.304Z" stroke="url(#paint32_linear_451_68)" stroke-opacity="0.2" stroke-width="4"/>
<path opacity="0.652174" d="M1106.35 531.937L1162.18 788.498C1163.64 795.199 1167.85 801.023 1173.71 804.439L1433.69 956.124C1439 959.224 1445.21 960.073 1450.95 958.486L1715.22 885.429C1722.42 883.439 1728.05 877.859 1730.24 870.538L1800.89 634.42C1803.08 627.098 1801.55 618.993 1796.8 612.788L1622.55 385.011C1618.76 380.062 1613.28 376.786 1607.31 375.903L1314.87 332.682C1308.28 331.708 1301.72 333.733 1296.92 338.223L1112.87 510.151C1107.07 515.571 1104.59 523.849 1106.35 531.937Z" stroke="url(#paint33_linear_451_68)" stroke-opacity="0.2" stroke-width="4"/>
<path opacity="0.666667" d="M1077.7 521.45L1119.89 778.345C1121.01 785.134 1124.91 791.198 1130.58 794.942L1378.89 959.022C1384.03 962.422 1390.19 963.614 1396 962.334L1659.69 904.232C1666.95 902.632 1672.83 897.361 1675.37 890.162L1756.63 660.292C1759.18 653.094 1758.06 644.907 1753.65 638.44L1593.49 403.666C1589.96 398.495 1584.65 394.909 1578.74 393.697L1293.1 335.214C1286.58 333.879 1279.94 335.549 1274.93 339.784L1085.27 500.039C1079.24 505.14 1076.36 513.273 1077.7 521.45Z" stroke="url(#paint34_linear_451_68)" stroke-opacity="0.2" stroke-width="4"/>
<path opacity="0.681159" d="M1063.78 511.88L1092.45 768.258C1093.22 775.114 1096.8 781.399 1102.26 785.457L1338.44 961.034C1343.4 964.722 1349.48 966.25 1355.33 965.281L1617.74 921.87C1625.05 920.661 1631.17 915.708 1634.06 908.648L1725.52 685.595C1728.41 678.535 1727.71 670.287 1723.65 663.579L1577.77 422.776C1574.51 417.402 1569.4 413.519 1563.56 411.984L1285.36 338.885C1278.93 337.195 1272.24 338.508 1267.03 342.477L1072.38 490.888C1066.12 495.662 1062.85 503.633 1063.78 511.88Z" stroke="url(#paint35_linear_451_68)" stroke-opacity="0.2" stroke-width="4"/>
<path opacity="0.695652" d="M1051.51 503.258L1066.84 758.285C1067.25 765.188 1070.5 771.673 1075.74 776.029L1299.37 962.188C1304.13 966.15 1310.11 968.007 1316 967.351L1576.45 938.329C1583.79 937.511 1590.13 932.886 1593.37 925.981L1694.58 710.281C1697.82 703.377 1697.54 695.091 1693.84 688.16L1562.37 442.299C1559.4 436.741 1554.5 432.576 1548.75 430.724L1278.61 343.687C1272.28 341.65 1265.54 342.604 1260.15 346.297L1061.14 482.731C1054.66 487.169 1051.01 494.962 1051.51 503.258Z" stroke="url(#paint36_linear_451_68)" stroke-opacity="0.2" stroke-width="4"/>
<path opacity="0.710145" d="M1024.83 495.612L1027.03 748.473C1027.09 755.403 1030 762.066 1035 766.706L1245.73 962.515C1250.27 966.735 1256.14 968.914 1262.05 968.571L1519.88 953.599C1527.24 953.172 1533.79 948.885 1537.37 942.152L1647.87 734.309C1651.45 727.577 1651.6 719.274 1648.26 712.143L1531.29 462.193C1528.61 456.471 1523.93 452.039 1518.3 449.878L1256.76 349.608C1250.57 347.232 1243.8 347.826 1238.24 351.235L1035.48 475.599C1028.8 479.693 1024.76 487.289 1024.83 495.612Z" stroke="url(#paint37_linear_451_68)" stroke-opacity="0.2" stroke-width="4"/>
<path opacity="0.724638" d="M998.702 488.965L988.021 738.868C987.724 745.803 990.283 752.622 995.022 757.529L1192.56 962.046C1196.87 966.509 1202.61 969.001 1208.51 968.971L1463.1 967.676C1470.46 967.639 1477.2 963.698 1481.12 957.155L1600.44 757.639C1604.35 751.095 1604.92 742.8 1601.96 735.49L1499.5 482.414C1497.13 476.547 1492.69 471.865 1487.18 469.404L1234.78 356.632C1228.72 353.926 1221.95 354.162 1216.23 357.277L1010.33 469.517C1003.47 473.256 999.057 480.639 998.702 488.965Z" stroke="url(#paint38_linear_451_68)" stroke-opacity="0.2" stroke-width="4"/>
<path opacity="0.73913" d="M987.045 483.338L963.782 729.514C963.128 736.433 965.327 743.387 969.8 748.544L1153.89 960.816C1157.96 965.506 1163.56 968.301 1169.44 968.583L1420.18 980.56C1427.52 980.911 1434.45 977.326 1438.69 970.989L1566.32 780.234C1570.56 773.898 1571.56 765.633 1568.98 758.167L1481.01 502.921C1478.94 496.929 1474.77 492.013 1469.4 489.261L1226.6 364.741C1220.7 361.716 1213.93 361.594 1208.07 364.408L999.647 464.504C992.614 467.882 987.83 475.031 987.045 483.338Z" stroke="url(#paint39_linear_451_68)" stroke-opacity="0.2" stroke-width="4"/>
<path opacity="0.753623" d="M975.804 478.743L940.293 720.45C939.282 727.333 941.114 734.4 945.307 739.789L1115.76 958.859C1119.57 963.761 1125.01 966.849 1130.87 967.439L1377.19 992.254C1384.49 992.989 1391.59 989.769 1396.14 983.657L1531.57 802.061C1536.13 795.949 1537.55 787.739 1535.37 780.141L1461.8 523.669C1460.06 517.571 1456.14 512.438 1450.93 509.406L1218.16 373.911C1212.43 370.577 1205.69 370.1 1199.7 372.605L989.351 460.577C982.16 463.584 977.018 470.48 975.804 478.743Z" stroke="url(#paint40_linear_451_68)" stroke-opacity="0.2" stroke-width="4"/>
<path opacity="0.768116" d="M967.914 475.193L920.526 711.721C919.158 718.545 920.619 725.703 924.523 731.307L1081.19 956.216C1084.74 961.313 1090.01 964.683 1095.82 965.579L1337.19 1002.77C1344.43 1003.88 1351.68 1001.04 1356.55 995.168L1499.23 823.091C1504.1 817.222 1505.95 809.093 1504.17 801.387L1444.88 544.619C1443.45 538.434 1439.82 533.1 1434.78 529.798L1212.41 384.119C1206.87 380.488 1200.16 379.659 1194.06 381.849L982.379 457.749C975.047 460.378 969.556 467 967.914 475.193Z" stroke="url(#paint41_linear_451_68)" stroke-opacity="0.2" stroke-width="4"/>
<path opacity="0.782609" d="M943.32 472.693L884.459 703.361C882.738 710.106 883.823 717.331 887.428 723.133L1030.23 952.922C1033.51 958.2 1038.59 961.84 1044.34 963.038L1280.24 1012.11C1287.41 1013.6 1294.8 1011.14 1299.97 1005.53L1449.37 843.298C1454.54 837.69 1456.81 829.667 1455.43 821.877L1410.24 565.724C1409.14 559.471 1405.78 553.954 1400.92 550.393L1189.31 395.333C1183.96 391.417 1177.31 390.239 1171.1 392.108L958.67 456.024C951.213 458.268 945.386 464.595 943.32 472.693Z" stroke="url(#paint42_linear_451_68)" stroke-opacity="0.2" stroke-width="4"/>
<path opacity="0.797101" d="M918.954 471.245L849.058 695.407C846.986 702.052 847.693 709.324 850.991 715.305L979.885 949.021C982.886 954.463 987.773 958.364 993.464 959.859L1223.41 1020.3C1230.5 1022.17 1238.01 1020.09 1243.46 1014.76L1399.03 862.66C1404.48 857.331 1407.16 849.441 1406.2 841.593L1374.87 586.946C1374.1 580.643 1371.04 574.958 1366.37 571.148L1165.79 407.523C1160.65 403.335 1154.07 401.812 1147.76 403.355L935.153 455.407C927.589 457.259 921.441 463.27 918.954 471.245Z" stroke="url(#paint43_linear_451_68)" stroke-opacity="0.2" stroke-width="4"/>
<path opacity="0.811594" d="M908.761 470.848L828.297 687.894C825.878 694.418 826.204 701.713 829.189 707.857L944.196 944.553C946.913 950.144 951.597 954.295 957.21 956.085L1180.77 1027.37C1187.75 1029.59 1195.36 1027.91 1201.09 1022.88L1362.26 881.159C1367.98 876.127 1371.08 868.396 1370.52 860.515L1352.79 608.241C1352.35 601.907 1349.58 596.069 1345.11 592.021L1155.81 420.655C1150.89 416.207 1144.39 414.344 1138.01 415.557L925.766 455.895C918.115 457.349 911.662 463.024 908.761 470.848Z" stroke="url(#paint44_linear_451_68)" stroke-opacity="0.2" stroke-width="4"/>
<path opacity="0.826087" d="M898.681 471.497L808.143 680.851C805.383 687.234 805.328 694.532 807.994 700.82L909.184 939.562C911.611 945.288 916.084 949.678 921.608 951.757L1138.37 1033.32C1145.24 1035.91 1152.92 1034.63 1158.9 1029.91L1325.12 898.781C1331.1 894.063 1334.59 886.517 1334.45 878.63L1329.99 629.568C1329.88 623.22 1327.42 617.245 1323.15 612.969L1145.32 434.691C1140.64 429.995 1134.23 427.797 1127.79 428.675L916.445 457.482C908.728 458.534 901.988 463.852 898.681 471.497Z" stroke="url(#paint45_linear_451_68)" stroke-opacity="0.2" stroke-width="4"/>
<path opacity="0.84058" d="M891.658 473.182L791.566 674.31C788.47 680.53 788.035 687.809 790.375 694.225L877.871 934.091C880.004 939.939 884.257 944.558 889.685 946.922L1099.27 1038.2C1106 1041.13 1113.75 1040.26 1119.97 1035.88L1290.66 915.513C1296.88 911.127 1300.76 903.794 1301.04 895.926L1309.49 650.887C1309.71 644.542 1307.55 638.443 1303.5 633.949L1137.29 449.592C1132.84 444.661 1126.54 442.132 1120.05 442.672L910.128 460.157C902.365 460.804 895.36 465.744 891.658 473.182Z" stroke="url(#paint46_linear_451_68)" stroke-opacity="0.2" stroke-width="4"/>
<path opacity="0.855072" d="M867.633 475.889L758.528 668.295C755.104 674.333 754.29 681.572 756.3 688.098L830.273 928.186C832.108 934.141 836.136 938.981 841.457 941.625L1043.53 1042.04C1050.11 1045.31 1057.9 1044.85 1064.34 1040.81L1238.94 931.349C1245.38 927.311 1249.64 920.217 1250.32 912.396L1271.28 672.157C1271.83 665.831 1269.98 659.623 1266.15 654.92L1111.66 465.312C1107.46 460.158 1101.28 457.305 1094.75 457.506L886.75 463.905C878.964 464.144 871.716 468.688 867.633 475.889Z" stroke="url(#paint47_linear_451_68)" stroke-opacity="0.2" stroke-width="4"/>
<path opacity="0.869565" d="M843.552 479.606L725.996 662.833C722.252 668.669 721.061 675.847 722.738 682.466L783.41 921.894C784.943 927.944 788.739 932.996 793.946 935.916L988.208 1044.86C994.621 1048.46 1002.43 1048.41 1009.07 1044.74L1187.01 946.289C1193.65 942.614 1198.27 935.784 1199.36 928.036L1232.38 693.341C1233.26 687.05 1231.73 680.746 1228.12 675.843L1085.4 481.812C1081.46 476.447 1075.41 473.275 1068.86 473.134L863.251 468.707C855.467 468.539 848.003 472.669 843.552 479.606Z" stroke="url(#paint48_linear_451_68)" stroke-opacity="0.2" stroke-width="4"/>
<path opacity="0.884058" d="M833.363 484.311L707.936 657.944C703.881 663.558 702.316 670.654 703.657 677.35L751.296 915.26C752.524 921.393 756.082 926.648 761.168 929.841L947.348 1046.72C953.58 1050.63 961.381 1051 968.203 1047.7L1148.92 960.33C1155.74 957.032 1160.71 950.491 1162.2 942.844L1206.79 714.397C1208.01 708.157 1206.8 701.77 1203.42 696.675L1072.48 499.04C1068.79 493.477 1062.89 489.991 1056.33 489.507L853.576 474.539C845.816 473.966 838.164 477.666 833.363 484.311Z" stroke="url(#paint49_linear_451_68)" stroke-opacity="0.2" stroke-width="4"/>
<path opacity="0.898551" d="M823.014 489.983L690.31 653.649C685.954 659.021 684.019 666.016 685.021 672.773L719.942 908.333C720.862 914.538 724.177 919.99 729.134 923.451L907.001 1047.65C913.038 1051.86 920.809 1052.64 927.788 1049.73L1110.73 973.479C1117.71 970.57 1123 964.344 1124.89 956.824L1180.54 735.292C1182.09 729.118 1181.2 722.658 1178.06 717.379L1058.85 516.949C1055.43 511.2 1049.69 507.408 1043.14 506.581L843.665 481.375C835.955 480.4 828.144 483.656 823.014 489.983Z" stroke="url(#paint50_linear_451_68)" stroke-opacity="0.2" stroke-width="4"/>
<path opacity="0.913043" d="M815.453 496.596L676.078 649.963C671.432 655.076 669.133 661.948 669.793 668.749L692.357 901.161C692.966 907.425 696.032 913.067 700.853 916.794L870.212 1047.69C876.04 1052.2 883.758 1053.39 890.868 1050.88L1075.49 985.743C1082.6 983.234 1088.2 977.345 1090.47 969.98L1156.63 755.985C1158.51 749.894 1157.94 743.372 1155.04 737.916L1047.49 535.489C1044.34 529.566 1038.76 525.473 1032.24 524.302L836.463 489.183C828.827 487.813 820.89 490.614 815.453 496.596Z" stroke="url(#paint51_linear_451_68)" stroke-opacity="0.2" stroke-width="4"/>
<path opacity="0.927536" d="M773.638 504.123L628.209 646.901C623.286 651.735 620.627 658.467 620.944 665.296L631.553 893.792C631.847 900.105 634.658 905.931 639.337 909.92L800.03 1046.9C805.637 1051.68 813.276 1053.28 820.492 1051.18L1006.24 997.134C1013.46 995.034 1019.34 989.503 1022 982.32L1098.08 776.444C1100.3 770.449 1100.05 763.877 1097.4 758.25L1001.37 554.606C998.504 548.52 993.102 544.134 986.612 542.621L794.923 497.93C787.387 496.173 779.356 498.509 773.638 504.123Z" stroke="url(#paint52_linear_451_68)" stroke-opacity="0.2" stroke-width="4"/>
<path opacity="0.942029" d="M765.52 512.533L614.661 644.475C609.473 649.012 606.461 655.583 606.433 662.424L605.532 886.273C605.506 892.626 608.058 898.63 612.588 902.878L764.49 1045.33C769.863 1050.37 777.4 1052.36 784.694 1050.68L971.05 1007.67C978.344 1005.98 984.481 1000.83 987.503 993.854L1072.91 796.631C1075.46 790.748 1075.54 784.136 1073.14 778.345L988.47 574.246C985.882 568.009 980.67 563.336 974.231 561.483L786.992 507.576C779.581 505.443 771.491 507.31 765.52 512.533Z" stroke="url(#paint53_linear_451_68)" stroke-opacity="0.2" stroke-width="4"/>
<path opacity="0.956522" d="M751.055 521.795L595.396 642.694C589.959 646.917 586.601 653.309 586.227 660.145L574.296 878.656C573.948 885.037 576.233 891.214 580.609 895.721L723.632 1043.02C728.76 1048.3 736.17 1050.69 743.513 1049.43L929.952 1017.36C937.296 1016.1 943.663 1011.34 947.037 1004.6L1041.14 816.516C1044.02 810.761 1044.44 804.12 1042.29 798.168L968.759 594.356C966.458 587.979 961.446 583.027 955.072 580.835L772.626 518.085C765.364 515.587 757.252 516.982 751.055 521.795Z" stroke="url(#paint54_linear_451_68)" stroke-opacity="0.2" stroke-width="4"/>
<path opacity="0.971014" d="M742.203 531.873L582.377 641.563C576.705 645.456 573.008 651.649 572.288 658.465L549.846 870.987C549.17 877.385 551.183 883.732 555.397 888.495L689.488 1040.03C694.36 1045.54 701.618 1048.31 708.983 1047.47L894.995 1026.24C902.36 1025.4 908.929 1021.05 912.641 1014.57L1014.79 836.065C1018 830.454 1018.75 823.793 1016.86 817.686L954.22 614.875C952.211 608.371 947.41 603.148 941.116 600.62L763.78 529.41C756.691 526.563 748.592 527.487 742.203 531.873Z" stroke="url(#paint55_linear_451_68)" stroke-opacity="0.2" stroke-width="4"/>
<path opacity="0.985507" d="M715.924 542.732L552.566 641.089C546.676 644.636 542.65 650.612 541.583 657.391L509.181 863.317C508.173 869.722 509.905 876.233 513.952 881.252L639.09 1036.43C643.697 1042.14 650.779 1045.28 658.136 1044.86L843.223 1034.32C850.581 1033.91 857.323 1029.98 861.355 1023.78L970.87 855.249C974.411 849.799 975.507 843.127 973.888 836.871L921.84 635.751C920.127 629.13 915.547 623.644 909.348 620.785L737.417 541.508C730.523 538.33 722.474 538.788 715.924 542.732Z" stroke="url(#paint56_linear_451_68)" stroke-opacity="0.2" stroke-width="4"/>
<path d="M688.182 554.331L521.925 641.272C515.835 644.457 511.488 650.197 510.075 656.922L468.294 855.693C466.949 862.094 468.393 868.766 472.265 874.038L588.463 1032.26C592.797 1038.16 599.68 1041.64 607.001 1041.64H790.679C798 1041.64 804.883 1038.16 809.217 1032.26L925.415 874.038C929.287 868.766 930.731 862.094 929.386 855.693L887.605 656.922C886.192 650.197 881.845 644.457 875.755 641.272L709.498 554.331C702.822 550.84 694.858 550.84 688.182 554.331Z" stroke="url(#paint57_linear_451_68)" stroke-opacity="0.2" stroke-width="4"/>
</g>
<defs>
<linearGradient id="paint0_linear_451_68" x1="2255.54" y1="996.459" x2="2462.8" y2="-208.641" gradientUnits="userSpaceOnUse">
<stop stop-color="#FF1CF7"/>
<stop offset="1" stop-color="#00B0FF" stop-opacity="0.1"/>
</linearGradient>
<linearGradient id="paint1_linear_451_68" x1="2206.32" y1="992.105" x2="2478.18" y2="-185.748" gradientUnits="userSpaceOnUse">
<stop stop-color="#FF1CF7"/>
<stop offset="1" stop-color="#00B0FF" stop-opacity="0.1"/>
</linearGradient>
<linearGradient id="paint2_linear_451_68" x1="2157.95" y1="986.309" x2="2491.62" y2="-160.502" gradientUnits="userSpaceOnUse">
<stop stop-color="#FF1CF7"/>
<stop offset="1" stop-color="#00B0FF" stop-opacity="0.1"/>
</linearGradient>
<linearGradient id="paint3_linear_451_68" x1="2110.49" y1="979.137" x2="2502.93" y2="-133.151" gradientUnits="userSpaceOnUse">
<stop stop-color="#FF1CF7"/>
<stop offset="1" stop-color="#00B0FF" stop-opacity="0.1"/>
</linearGradient>
<linearGradient id="paint4_linear_451_68" x1="2064.02" y1="970.656" x2="2511.95" y2="-103.964" gradientUnits="userSpaceOnUse">
<stop stop-color="#FF1CF7"/>
<stop offset="1" stop-color="#00B0FF" stop-opacity="0.1"/>
</linearGradient>
<linearGradient id="paint5_linear_451_68" x1="2018.57" y1="960.94" x2="2518.55" y2="-73.2198" gradientUnits="userSpaceOnUse">
<stop stop-color="#FF1CF7"/>
<stop offset="1" stop-color="#00B0FF" stop-opacity="0.1"/>
</linearGradient>
<linearGradient id="paint6_linear_451_68" x1="1974.21" y1="950.063" x2="2522.66" y2="-41.2016" gradientUnits="userSpaceOnUse">
<stop stop-color="#FF1CF7"/>
<stop offset="1" stop-color="#00B0FF" stop-opacity="0.1"/>
</linearGradient>
<linearGradient id="paint7_linear_451_68" x1="1930.98" y1="938.103" x2="2524.24" y2="-8.19011" gradientUnits="userSpaceOnUse">
<stop stop-color="#FF1CF7"/>
<stop offset="1" stop-color="#00B0FF" stop-opacity="0.1"/>
</linearGradient>
<linearGradient id="paint8_linear_451_68" x1="1888.93" y1="925.138" x2="2523.3" y2="25.5434" gradientUnits="userSpaceOnUse">
<stop stop-color="#FF1CF7"/>
<stop offset="1" stop-color="#00B0FF" stop-opacity="0.1"/>
</linearGradient>
<linearGradient id="paint9_linear_451_68" x1="1848.1" y1="911.252" x2="2519.88" y2="59.7438" gradientUnits="userSpaceOnUse">
<stop stop-color="#FF1CF7"/>
<stop offset="1" stop-color="#00B0FF" stop-opacity="0.1"/>
</linearGradient>
<linearGradient id="paint10_linear_451_68" x1="1808.51" y1="896.527" x2="2514.04" y2="94.1724" gradientUnits="userSpaceOnUse">
<stop stop-color="#FF1CF7"/>
<stop offset="1" stop-color="#00B0FF" stop-opacity="0.1"/>
</linearGradient>
<linearGradient id="paint11_linear_451_68" x1="1770.2" y1="881.047" x2="2505.87" y2="128.614" gradientUnits="userSpaceOnUse">
<stop stop-color="#FF1CF7"/>
<stop offset="1" stop-color="#00B0FF" stop-opacity="0.1"/>
</linearGradient>
<linearGradient id="paint12_linear_451_68" x1="1733.2" y1="864.897" x2="2495.5" y2="162.879" gradientUnits="userSpaceOnUse">
<stop stop-color="#FF1CF7"/>
<stop offset="1" stop-color="#00B0FF" stop-opacity="0.1"/>
</linearGradient>
<linearGradient id="paint13_linear_451_68" x1="1697.52" y1="848.164" x2="2483.05" y2="196.802" gradientUnits="userSpaceOnUse">
<stop stop-color="#FF1CF7"/>
<stop offset="1" stop-color="#00B0FF" stop-opacity="0.1"/>
</linearGradient>
<linearGradient id="paint14_linear_451_68" x1="1663.18" y1="830.935" x2="2468.66" y2="230.247" gradientUnits="userSpaceOnUse">
<stop stop-color="#FF1CF7"/>
<stop offset="1" stop-color="#00B0FF" stop-opacity="0.1"/>
</linearGradient>
<linearGradient id="paint15_linear_451_68" x1="1613.19" y1="813.297" x2="2435.49" y2="263.104" gradientUnits="userSpaceOnUse">
<stop stop-color="#FF1CF7"/>
<stop offset="1" stop-color="#00B0FF" stop-opacity="0.1"/>
</linearGradient>
<linearGradient id="paint16_linear_451_68" x1="1581.55" y1="795.335" x2="2417.68" y2="295.285" gradientUnits="userSpaceOnUse">
<stop stop-color="#FF1CF7"/>
<stop offset="1" stop-color="#00B0FF" stop-opacity="0.1"/>
</linearGradient>
<linearGradient id="paint17_linear_451_68" x1="1551.28" y1="777.137" x2="2398.39" y2="326.732" gradientUnits="userSpaceOnUse">
<stop stop-color="#FF1CF7"/>
<stop offset="1" stop-color="#00B0FF" stop-opacity="0.1"/>
</linearGradient>
<linearGradient id="paint18_linear_451_68" x1="1522.36" y1="758.786" x2="2377.76" y2="357.403" gradientUnits="userSpaceOnUse">
<stop stop-color="#FF1CF7"/>
<stop offset="1" stop-color="#00B0FF" stop-opacity="0.1"/>
</linearGradient>
<linearGradient id="paint19_linear_451_68" x1="1477.78" y1="740.368" x2="2338.93" y2="387.281" gradientUnits="userSpaceOnUse">
<stop stop-color="#FF1CF7"/>
<stop offset="1" stop-color="#00B0FF" stop-opacity="0.1"/>
</linearGradient>
<linearGradient id="paint20_linear_451_68" x1="1434.54" y1="721.967" x2="2299.02" y2="416.366" gradientUnits="userSpaceOnUse">
<stop stop-color="#FF1CF7"/>
<stop offset="1" stop-color="#00B0FF" stop-opacity="0.1"/>
</linearGradient>
<linearGradient id="paint21_linear_451_68" x1="1409.62" y1="703.662" x2="2275.17" y2="444.669" gradientUnits="userSpaceOnUse">
<stop stop-color="#FF1CF7"/>
<stop offset="1" stop-color="#00B0FF" stop-opacity="0.1"/>
</linearGradient>
<linearGradient id="paint22_linear_451_68" x1="1383" y1="685.535" x2="2247.47" y2="472.219" gradientUnits="userSpaceOnUse">
<stop stop-color="#FF1CF7"/>
<stop offset="1" stop-color="#00B0FF" stop-opacity="0.1"/>
</linearGradient>
<linearGradient id="paint23_linear_451_68" x1="1343.65" y1="667.663" x2="2205.02" y2="499.054" gradientUnits="userSpaceOnUse">
<stop stop-color="#FF1CF7"/>
<stop offset="1" stop-color="#00B0FF" stop-opacity="0.1"/>
</linearGradient>
<linearGradient id="paint24_linear_451_68" x1="1305.55" y1="650.121" x2="2161.89" y2="525.216" gradientUnits="userSpaceOnUse">
<stop stop-color="#FF1CF7"/>
<stop offset="1" stop-color="#00B0FF" stop-opacity="0.1"/>
</linearGradient>
<linearGradient id="paint25_linear_451_68" x1="1282.67" y1="632.982" x2="2132.17" y2="550.757" gradientUnits="userSpaceOnUse">
<stop stop-color="#FF1CF7"/>
<stop offset="1" stop-color="#00B0FF" stop-opacity="0.1"/>
</linearGradient>
<linearGradient id="paint26_linear_451_68" x1="1260.96" y1="616.316" x2="2101.88" y2="575.73" gradientUnits="userSpaceOnUse">
<stop stop-color="#FF1CF7"/>
<stop offset="1" stop-color="#00B0FF" stop-opacity="0.1"/>
</linearGradient>
<linearGradient id="paint27_linear_451_68" x1="1243.39" y1="600.191" x2="2074.09" y2="600.191" gradientUnits="userSpaceOnUse">
<stop stop-color="#FF1CF7"/>
<stop offset="1" stop-color="#00B0FF" stop-opacity="0.1"/>
</linearGradient>
<linearGradient id="paint28_linear_451_68" x1="1209.92" y1="584.669" x2="2028.8" y2="624.191" gradientUnits="userSpaceOnUse">
<stop stop-color="#FF1CF7"/>
<stop offset="1" stop-color="#00B0FF" stop-opacity="0.1"/>
</linearGradient>
<linearGradient id="paint29_linear_451_68" x1="1176.5" y1="569.813" x2="1982.04" y2="647.783" gradientUnits="userSpaceOnUse">
<stop stop-color="#FF1CF7"/>
<stop offset="1" stop-color="#00B0FF" stop-opacity="0.1"/>
</linearGradient>
<linearGradient id="paint30_linear_451_68" x1="1159.08" y1="555.678" x2="1949.8" y2="671.012" gradientUnits="userSpaceOnUse">
<stop stop-color="#FF1CF7"/>
<stop offset="1" stop-color="#00B0FF" stop-opacity="0.1"/>
</linearGradient>
<linearGradient id="paint31_linear_451_68" x1="1142.62" y1="542.321" x2="1917.09" y2="693.921" gradientUnits="userSpaceOnUse">
<stop stop-color="#FF1CF7"/>
<stop offset="1" stop-color="#00B0FF" stop-opacity="0.1"/>
</linearGradient>
<linearGradient id="paint32_linear_451_68" x1="1130.06" y1="529.788" x2="1886.87" y2="716.539" gradientUnits="userSpaceOnUse">
<stop stop-color="#FF1CF7"/>
<stop offset="1" stop-color="#00B0FF" stop-opacity="0.1"/>
</linearGradient>
<linearGradient id="paint33_linear_451_68" x1="1101.34" y1="518.127" x2="1839.14" y2="738.892" gradientUnits="userSpaceOnUse">
<stop stop-color="#FF1CF7"/>
<stop offset="1" stop-color="#00B0FF" stop-opacity="0.1"/>
</linearGradient>
<linearGradient id="paint34_linear_451_68" x1="1073.42" y1="507.379" x2="1790.84" y2="760.995" gradientUnits="userSpaceOnUse">
<stop stop-color="#FF1CF7"/>
<stop offset="1" stop-color="#00B0FF" stop-opacity="0.1"/>
</linearGradient>
<linearGradient id="paint35_linear_451_68" x1="1060.22" y1="497.583" x2="1755.96" y2="782.85" gradientUnits="userSpaceOnUse">
<stop stop-color="#FF1CF7"/>
<stop offset="1" stop-color="#00B0FF" stop-opacity="0.1"/>
</linearGradient>
<linearGradient id="paint36_linear_451_68" x1="1048.69" y1="488.773" x2="1721.45" y2="804.451" gradientUnits="userSpaceOnUse">
<stop stop-color="#FF1CF7"/>
<stop offset="1" stop-color="#00B0FF" stop-opacity="0.1"/>
</linearGradient>
<linearGradient id="paint37_linear_451_68" x1="1022.77" y1="480.976" x2="1671.27" y2="825.776" gradientUnits="userSpaceOnUse">
<stop stop-color="#FF1CF7"/>
<stop offset="1" stop-color="#00B0FF" stop-opacity="0.1"/>
</linearGradient>
<linearGradient id="paint38_linear_451_68" x1="997.397" y1="474.22" x2="1620.38" y2="846.795" gradientUnits="userSpaceOnUse">
<stop stop-color="#FF1CF7"/>
<stop offset="1" stop-color="#00B0FF" stop-opacity="0.1"/>
</linearGradient>
<linearGradient id="paint39_linear_451_68" x1="986.506" y1="468.525" x2="1582.75" y2="867.463" gradientUnits="userSpaceOnUse">
<stop stop-color="#FF1CF7"/>
<stop offset="1" stop-color="#00B0FF" stop-opacity="0.1"/>
</linearGradient>
<linearGradient id="paint40_linear_451_68" x1="976.035" y1="463.907" x2="1544.35" y2="887.722" gradientUnits="userSpaceOnUse">
<stop stop-color="#FF1CF7"/>
<stop offset="1" stop-color="#00B0FF" stop-opacity="0.1"/>
</linearGradient>
<linearGradient id="paint41_linear_451_68" x1="968.917" y1="460.38" x2="1508.15" y2="907.508" gradientUnits="userSpaceOnUse">
<stop stop-color="#FF1CF7"/>
<stop offset="1" stop-color="#00B0FF" stop-opacity="0.1"/>
</linearGradient>
<linearGradient id="paint42_linear_451_68" x1="945.094" y1="457.95" x2="1454.14" y2="926.74" gradientUnits="userSpaceOnUse">
<stop stop-color="#FF1CF7"/>
<stop offset="1" stop-color="#00B0FF" stop-opacity="0.1"/>
</linearGradient>
<linearGradient id="paint43_linear_451_68" x1="921.495" y1="456.622" x2="1399.32" y2="945.333" gradientUnits="userSpaceOnUse">
<stop stop-color="#FF1CF7"/>
<stop offset="1" stop-color="#00B0FF" stop-opacity="0.1"/>
</linearGradient>
<linearGradient id="paint44_linear_451_68" x1="912.062" y1="456.397" x2="1357.7" y2="963.193" gradientUnits="userSpaceOnUse">
<stop stop-color="#FF1CF7"/>
<stop offset="1" stop-color="#00B0FF" stop-opacity="0.1"/>
</linearGradient>
<linearGradient id="paint45_linear_451_68" x1="902.732" y1="457.268" x2="1315.31" y2="980.22" gradientUnits="userSpaceOnUse">
<stop stop-color="#FF1CF7"/>
<stop offset="1" stop-color="#00B0FF" stop-opacity="0.1"/>
</linearGradient>
<linearGradient id="paint46_linear_451_68" x1="896.443" y1="459.228" x2="1275.18" y2="996.314" gradientUnits="userSpaceOnUse">
<stop stop-color="#FF1CF7"/>
<stop offset="1" stop-color="#00B0FF" stop-opacity="0.1"/>
</linearGradient>
<linearGradient id="paint47_linear_451_68" x1="873.133" y1="462.264" x2="1217.38" y2="1011.37" gradientUnits="userSpaceOnUse">
<stop stop-color="#FF1CF7"/>
<stop offset="1" stop-color="#00B0FF" stop-opacity="0.1"/>
</linearGradient>
<linearGradient id="paint48_linear_451_68" x1="849.743" y1="466.361" x2="1158.99" y2="1025.3" gradientUnits="userSpaceOnUse">
<stop stop-color="#FF1CF7"/>
<stop offset="1" stop-color="#00B0FF" stop-opacity="0.1"/>
</linearGradient>
<linearGradient id="paint49_linear_451_68" x1="840.219" y1="471.497" x2="1114.1" y2="1038" gradientUnits="userSpaceOnUse">
<stop stop-color="#FF1CF7"/>
<stop offset="1" stop-color="#00B0FF" stop-opacity="0.1"/>
</linearGradient>
<linearGradient id="paint50_linear_451_68" x1="830.501" y1="477.649" x2="1068.82" y2="1049.4" gradientUnits="userSpaceOnUse">
<stop stop-color="#FF1CF7"/>
<stop offset="1" stop-color="#00B0FF" stop-opacity="0.1"/>
</linearGradient>
<linearGradient id="paint51_linear_451_68" x1="823.535" y1="484.791" x2="1026.28" y2="1059.42" gradientUnits="userSpaceOnUse">
<stop stop-color="#FF1CF7"/>
<stop offset="1" stop-color="#00B0FF" stop-opacity="0.1"/>
</linearGradient>
<linearGradient id="paint52_linear_451_68" x1="782.274" y1="492.892" x2="949.61" y2="1068.01" gradientUnits="userSpaceOnUse">
<stop stop-color="#FF1CF7"/>
<stop offset="1" stop-color="#00B0FF" stop-opacity="0.1"/>
</linearGradient>
<linearGradient id="paint53_linear_451_68" x1="774.663" y1="501.917" x2="906.97" y2="1075.15" gradientUnits="userSpaceOnUse">
<stop stop-color="#FF1CF7"/>
<stop offset="1" stop-color="#00B0FF" stop-opacity="0.1"/>
</linearGradient>
<linearGradient id="paint54_linear_451_68" x1="760.658" y1="511.832" x2="858.514" y2="1080.81" gradientUnits="userSpaceOnUse">
<stop stop-color="#FF1CF7"/>
<stop offset="1" stop-color="#00B0FF" stop-opacity="0.1"/>
</linearGradient>
<linearGradient id="paint55_linear_451_68" x1="752.213" y1="522.595" x2="816.4" y2="1085" gradientUnits="userSpaceOnUse">
<stop stop-color="#FF1CF7"/>
<stop offset="1" stop-color="#00B0FF" stop-opacity="0.1"/>
</linearGradient>
<linearGradient id="paint56_linear_451_68" x1="726.287" y1="534.166" x2="757.791" y2="1087.77" gradientUnits="userSpaceOnUse">
<stop stop-color="#FF1CF7"/>
<stop offset="1" stop-color="#00B0FF" stop-opacity="0.1"/>
</linearGradient>
<linearGradient id="paint57_linear_451_68" x1="698.84" y1="546.501" x2="698.84" y2="1089.16" gradientUnits="userSpaceOnUse">
<stop stop-color="#FF1CF7"/>
<stop offset="1" stop-color="#00B0FF" stop-opacity="0.1"/>
</linearGradient>
<clipPath id="clip0_451_68">
<rect width="1920" height="1080" fill="white"/>
</clipPath>
</defs>
</svg>
